<?xml version="1.0" encoding="utf-8" standalone="no"?>
<!DOCTYPE svg PUBLIC "-//W3C//DTD SVG 1.1//EN"
  "http://www.w3.org/Graphics/SVG/1.1/DTD/svg11.dtd">
<svg xmlns:xlink="http://www.w3.org/1999/xlink" width="408.10125pt" height="325.98825pt" viewBox="0 0 408.10125 325.98825" xmlns="http://www.w3.org/2000/svg" version="1.1">
 <metadata>
  <rdf:RDF xmlns:dc="http://purl.org/dc/elements/1.1/" xmlns:cc="http://creativecommons.org/ns#" xmlns:rdf="http://www.w3.org/1999/02/22-rdf-syntax-ns#">
   <cc:Work>
    <dc:type rdf:resource="http://purl.org/dc/dcmitype/StillImage"/>
    <dc:date>2023-06-14T11:37:43.411637</dc:date>
    <dc:format>image/svg+xml</dc:format>
    <dc:creator>
     <cc:Agent>
      <dc:title>Matplotlib v3.5.1, https://matplotlib.org/</dc:title>
     </cc:Agent>
    </dc:creator>
   </cc:Work>
  </rdf:RDF>
 </metadata>
 <defs>
  <style type="text/css">*{stroke-linejoin: round; stroke-linecap: butt}</style>
 </defs>
 <g id="figure_1">
  <g id="patch_1">
   <path d="M 0 325.98825 
L 408.10125 325.98825 
L 408.10125 0 
L 0 0 
z
" style="fill: #ffffff"/>
  </g>
  <g id="axes_1">
   <g id="patch_2">
    <path d="M 43.78125 288.432 
L 400.90125 288.432 
L 400.90125 22.32 
L 43.78125 22.32 
z
" style="fill: #ffffff"/>
   </g>
   <g id="PathCollection_1">
    <defs>
     <path id="m5ac44c0fbe" d="M -3 3 
L 3 3 
L 3 -3 
L -3 -3 
z
" style="stroke: #1f77b4"/>
    </defs>
    <g clip-path="url(#pcda32b8aa0)">
     <use xlink:href="#m5ac44c0fbe" x="60.013977" y="34.416" style="fill: #1f77b4; stroke: #1f77b4"/>
     <use xlink:href="#m5ac44c0fbe" x="63.293316" y="34.865508" style="fill: #1f77b4; stroke: #1f77b4"/>
     <use xlink:href="#m5ac44c0fbe" x="66.572655" y="35.429515" style="fill: #1f77b4; stroke: #1f77b4"/>
     <use xlink:href="#m5ac44c0fbe" x="69.851994" y="35.601966" style="fill: #1f77b4; stroke: #1f77b4"/>
     <use xlink:href="#m5ac44c0fbe" x="73.131333" y="35.892717" style="fill: #1f77b4; stroke: #1f77b4"/>
     <use xlink:href="#m5ac44c0fbe" x="76.410671" y="36.651247" style="fill: #1f77b4; stroke: #1f77b4"/>
     <use xlink:href="#m5ac44c0fbe" x="79.69001" y="36.823149" style="fill: #1f77b4; stroke: #1f77b4"/>
     <use xlink:href="#m5ac44c0fbe" x="82.969349" y="36.655224" style="fill: #1f77b4; stroke: #1f77b4"/>
     <use xlink:href="#m5ac44c0fbe" x="86.248688" y="37.310581" style="fill: #1f77b4; stroke: #1f77b4"/>
     <use xlink:href="#m5ac44c0fbe" x="89.528027" y="37.390176" style="fill: #1f77b4; stroke: #1f77b4"/>
     <use xlink:href="#m5ac44c0fbe" x="92.807366" y="38.631489" style="fill: #1f77b4; stroke: #1f77b4"/>
     <use xlink:href="#m5ac44c0fbe" x="96.086705" y="39.068562" style="fill: #1f77b4; stroke: #1f77b4"/>
     <use xlink:href="#m5ac44c0fbe" x="99.366043" y="39.314375" style="fill: #1f77b4; stroke: #1f77b4"/>
     <use xlink:href="#m5ac44c0fbe" x="102.645382" y="39.444324" style="fill: #1f77b4; stroke: #1f77b4"/>
     <use xlink:href="#m5ac44c0fbe" x="105.924721" y="39.801805" style="fill: #1f77b4; stroke: #1f77b4"/>
     <use xlink:href="#m5ac44c0fbe" x="109.20406" y="40.743639" style="fill: #1f77b4; stroke: #1f77b4"/>
     <use xlink:href="#m5ac44c0fbe" x="112.483399" y="40.137686" style="fill: #1f77b4; stroke: #1f77b4"/>
     <use xlink:href="#m5ac44c0fbe" x="115.762738" y="40.417786" style="fill: #1f77b4; stroke: #1f77b4"/>
     <use xlink:href="#m5ac44c0fbe" x="119.042076" y="41.690454" style="fill: #1f77b4; stroke: #1f77b4"/>
     <use xlink:href="#m5ac44c0fbe" x="122.321415" y="41.460413" style="fill: #1f77b4; stroke: #1f77b4"/>
     <use xlink:href="#m5ac44c0fbe" x="125.600754" y="42.190045" style="fill: #1f77b4; stroke: #1f77b4"/>
     <use xlink:href="#m5ac44c0fbe" x="128.880093" y="42.700741" style="fill: #1f77b4; stroke: #1f77b4"/>
     <use xlink:href="#m5ac44c0fbe" x="132.159432" y="43.195432" style="fill: #1f77b4; stroke: #1f77b4"/>
     <use xlink:href="#m5ac44c0fbe" x="135.438771" y="43.794109" style="fill: #1f77b4; stroke: #1f77b4"/>
     <use xlink:href="#m5ac44c0fbe" x="138.71811" y="43.221401" style="fill: #1f77b4; stroke: #1f77b4"/>
     <use xlink:href="#m5ac44c0fbe" x="141.997448" y="44.401287" style="fill: #1f77b4; stroke: #1f77b4"/>
     <use xlink:href="#m5ac44c0fbe" x="145.276787" y="44.379472" style="fill: #1f77b4; stroke: #1f77b4"/>
     <use xlink:href="#m5ac44c0fbe" x="148.556126" y="44.618567" style="fill: #1f77b4; stroke: #1f77b4"/>
     <use xlink:href="#m5ac44c0fbe" x="151.835465" y="45.411164" style="fill: #1f77b4; stroke: #1f77b4"/>
     <use xlink:href="#m5ac44c0fbe" x="155.114804" y="46.025695" style="fill: #1f77b4; stroke: #1f77b4"/>
     <use xlink:href="#m5ac44c0fbe" x="158.394143" y="46.599827" style="fill: #1f77b4; stroke: #1f77b4"/>
     <use xlink:href="#m5ac44c0fbe" x="161.673481" y="47.497274" style="fill: #1f77b4; stroke: #1f77b4"/>
     <use xlink:href="#m5ac44c0fbe" x="164.95282" y="47.836452" style="fill: #1f77b4; stroke: #1f77b4"/>
     <use xlink:href="#m5ac44c0fbe" x="168.232159" y="48.021181" style="fill: #1f77b4; stroke: #1f77b4"/>
     <use xlink:href="#m5ac44c0fbe" x="171.511498" y="49.333513" style="fill: #1f77b4; stroke: #1f77b4"/>
     <use xlink:href="#m5ac44c0fbe" x="174.790837" y="49.436723" style="fill: #1f77b4; stroke: #1f77b4"/>
     <use xlink:href="#m5ac44c0fbe" x="178.070176" y="50.212337" style="fill: #1f77b4; stroke: #1f77b4"/>
     <use xlink:href="#m5ac44c0fbe" x="181.349514" y="49.486688" style="fill: #1f77b4; stroke: #1f77b4"/>
     <use xlink:href="#m5ac44c0fbe" x="184.628853" y="50.466164" style="fill: #1f77b4; stroke: #1f77b4"/>
     <use xlink:href="#m5ac44c0fbe" x="187.908192" y="51.415217" style="fill: #1f77b4; stroke: #1f77b4"/>
     <use xlink:href="#m5ac44c0fbe" x="191.187531" y="52.867618" style="fill: #1f77b4; stroke: #1f77b4"/>
     <use xlink:href="#m5ac44c0fbe" x="194.46687" y="53.985139" style="fill: #1f77b4; stroke: #1f77b4"/>
     <use xlink:href="#m5ac44c0fbe" x="197.746209" y="53.892378" style="fill: #1f77b4; stroke: #1f77b4"/>
     <use xlink:href="#m5ac44c0fbe" x="201.025548" y="54.838955" style="fill: #1f77b4; stroke: #1f77b4"/>
     <use xlink:href="#m5ac44c0fbe" x="204.304886" y="55.330075" style="fill: #1f77b4; stroke: #1f77b4"/>
     <use xlink:href="#m5ac44c0fbe" x="207.584225" y="55.366609" style="fill: #1f77b4; stroke: #1f77b4"/>
     <use xlink:href="#m5ac44c0fbe" x="210.863564" y="58.122787" style="fill: #1f77b4; stroke: #1f77b4"/>
     <use xlink:href="#m5ac44c0fbe" x="214.142903" y="58.339048" style="fill: #1f77b4; stroke: #1f77b4"/>
     <use xlink:href="#m5ac44c0fbe" x="217.422242" y="57.808949" style="fill: #1f77b4; stroke: #1f77b4"/>
     <use xlink:href="#m5ac44c0fbe" x="220.701581" y="59.530652" style="fill: #1f77b4; stroke: #1f77b4"/>
     <use xlink:href="#m5ac44c0fbe" x="223.980919" y="59.953857" style="fill: #1f77b4; stroke: #1f77b4"/>
     <use xlink:href="#m5ac44c0fbe" x="227.260258" y="59.490899" style="fill: #1f77b4; stroke: #1f77b4"/>
     <use xlink:href="#m5ac44c0fbe" x="230.539597" y="62.208912" style="fill: #1f77b4; stroke: #1f77b4"/>
     <use xlink:href="#m5ac44c0fbe" x="233.818936" y="63.16285" style="fill: #1f77b4; stroke: #1f77b4"/>
     <use xlink:href="#m5ac44c0fbe" x="237.098275" y="63.81666" style="fill: #1f77b4; stroke: #1f77b4"/>
     <use xlink:href="#m5ac44c0fbe" x="240.377614" y="66.715614" style="fill: #1f77b4; stroke: #1f77b4"/>
     <use xlink:href="#m5ac44c0fbe" x="243.656952" y="75.46712" style="fill: #1f77b4; stroke: #1f77b4"/>
     <use xlink:href="#m5ac44c0fbe" x="246.936291" y="99.469857" style="fill: #1f77b4; stroke: #1f77b4"/>
     <use xlink:href="#m5ac44c0fbe" x="250.21563" y="157.181897" style="fill: #1f77b4; stroke: #1f77b4"/>
     <use xlink:href="#m5ac44c0fbe" x="253.494969" y="118.220048" style="fill: #1f77b4; stroke: #1f77b4"/>
     <use xlink:href="#m5ac44c0fbe" x="256.774308" y="159.983823" style="fill: #1f77b4; stroke: #1f77b4"/>
     <use xlink:href="#m5ac44c0fbe" x="260.053647" y="160.357955" style="fill: #1f77b4; stroke: #1f77b4"/>
     <use xlink:href="#m5ac44c0fbe" x="263.332986" y="234.385311" style="fill: #1f77b4; stroke: #1f77b4"/>
     <use xlink:href="#m5ac44c0fbe" x="266.612324" y="210.359178" style="fill: #1f77b4; stroke: #1f77b4"/>
     <use xlink:href="#m5ac44c0fbe" x="269.891663" y="240.372448" style="fill: #1f77b4; stroke: #1f77b4"/>
     <use xlink:href="#m5ac44c0fbe" x="273.171002" y="244.06922" style="fill: #1f77b4; stroke: #1f77b4"/>
     <use xlink:href="#m5ac44c0fbe" x="276.450341" y="219.753172" style="fill: #1f77b4; stroke: #1f77b4"/>
     <use xlink:href="#m5ac44c0fbe" x="279.72968" y="239.312121" style="fill: #1f77b4; stroke: #1f77b4"/>
     <use xlink:href="#m5ac44c0fbe" x="283.009019" y="233.188331" style="fill: #1f77b4; stroke: #1f77b4"/>
     <use xlink:href="#m5ac44c0fbe" x="286.288357" y="237.500487" style="fill: #1f77b4; stroke: #1f77b4"/>
     <use xlink:href="#m5ac44c0fbe" x="289.567696" y="241.71744" style="fill: #1f77b4; stroke: #1f77b4"/>
     <use xlink:href="#m5ac44c0fbe" x="292.847035" y="241.836155" style="fill: #1f77b4; stroke: #1f77b4"/>
     <use xlink:href="#m5ac44c0fbe" x="296.126374" y="243.585778" style="fill: #1f77b4; stroke: #1f77b4"/>
     <use xlink:href="#m5ac44c0fbe" x="299.405713" y="233.836444" style="fill: #1f77b4; stroke: #1f77b4"/>
     <use xlink:href="#m5ac44c0fbe" x="302.685052" y="234.854551" style="fill: #1f77b4; stroke: #1f77b4"/>
     <use xlink:href="#m5ac44c0fbe" x="305.96439" y="245.5332" style="fill: #1f77b4; stroke: #1f77b4"/>
     <use xlink:href="#m5ac44c0fbe" x="309.243729" y="245.91211" style="fill: #1f77b4; stroke: #1f77b4"/>
     <use xlink:href="#m5ac44c0fbe" x="312.523068" y="244.418137" style="fill: #1f77b4; stroke: #1f77b4"/>
     <use xlink:href="#m5ac44c0fbe" x="315.802407" y="245.494452" style="fill: #1f77b4; stroke: #1f77b4"/>
     <use xlink:href="#m5ac44c0fbe" x="319.081746" y="248.337313" style="fill: #1f77b4; stroke: #1f77b4"/>
     <use xlink:href="#m5ac44c0fbe" x="322.361085" y="247.311298" style="fill: #1f77b4; stroke: #1f77b4"/>
     <use xlink:href="#m5ac44c0fbe" x="325.640424" y="246.308629" style="fill: #1f77b4; stroke: #1f77b4"/>
     <use xlink:href="#m5ac44c0fbe" x="328.919762" y="252.698416" style="fill: #1f77b4; stroke: #1f77b4"/>
     <use xlink:href="#m5ac44c0fbe" x="332.199101" y="245.139305" style="fill: #1f77b4; stroke: #1f77b4"/>
     <use xlink:href="#m5ac44c0fbe" x="335.47844" y="243.790054" style="fill: #1f77b4; stroke: #1f77b4"/>
     <use xlink:href="#m5ac44c0fbe" x="338.757779" y="243.724489" style="fill: #1f77b4; stroke: #1f77b4"/>
     <use xlink:href="#m5ac44c0fbe" x="342.037118" y="252.649817" style="fill: #1f77b4; stroke: #1f77b4"/>
     <use xlink:href="#m5ac44c0fbe" x="345.316457" y="251.959907" style="fill: #1f77b4; stroke: #1f77b4"/>
     <use xlink:href="#m5ac44c0fbe" x="348.595795" y="249.93661" style="fill: #1f77b4; stroke: #1f77b4"/>
     <use xlink:href="#m5ac44c0fbe" x="351.875134" y="251.795009" style="fill: #1f77b4; stroke: #1f77b4"/>
     <use xlink:href="#m5ac44c0fbe" x="355.154473" y="248.117224" style="fill: #1f77b4; stroke: #1f77b4"/>
     <use xlink:href="#m5ac44c0fbe" x="358.433812" y="251.244975" style="fill: #1f77b4; stroke: #1f77b4"/>
     <use xlink:href="#m5ac44c0fbe" x="361.713151" y="251.276812" style="fill: #1f77b4; stroke: #1f77b4"/>
     <use xlink:href="#m5ac44c0fbe" x="364.99249" y="249.939576" style="fill: #1f77b4; stroke: #1f77b4"/>
     <use xlink:href="#m5ac44c0fbe" x="368.271829" y="251.378985" style="fill: #1f77b4; stroke: #1f77b4"/>
     <use xlink:href="#m5ac44c0fbe" x="371.551167" y="251.793028" style="fill: #1f77b4; stroke: #1f77b4"/>
     <use xlink:href="#m5ac44c0fbe" x="374.830506" y="251.297162" style="fill: #1f77b4; stroke: #1f77b4"/>
     <use xlink:href="#m5ac44c0fbe" x="378.109845" y="254.633114" style="fill: #1f77b4; stroke: #1f77b4"/>
     <use xlink:href="#m5ac44c0fbe" x="381.389184" y="252.797193" style="fill: #1f77b4; stroke: #1f77b4"/>
     <use xlink:href="#m5ac44c0fbe" x="384.668523" y="249.055755" style="fill: #1f77b4; stroke: #1f77b4"/>
    </g>
   </g>
   <g id="PathCollection_2">
    <defs>
     <path id="m383be65303" d="M -3 0 
L 3 0 
M 0 3 
L 0 -3 
" style="stroke: #ff7f0e; stroke-width: 1.5"/>
    </defs>
    <g clip-path="url(#pcda32b8aa0)">
     <use xlink:href="#m383be65303" x="60.013977" y="37.392879" style="fill: #ff7f0e; stroke: #ff7f0e; stroke-width: 1.5"/>
     <use xlink:href="#m383be65303" x="63.293316" y="37.586032" style="fill: #ff7f0e; stroke: #ff7f0e; stroke-width: 1.5"/>
     <use xlink:href="#m383be65303" x="66.572655" y="37.863657" style="fill: #ff7f0e; stroke: #ff7f0e; stroke-width: 1.5"/>
     <use xlink:href="#m383be65303" x="69.851994" y="38.3491" style="fill: #ff7f0e; stroke: #ff7f0e; stroke-width: 1.5"/>
     <use xlink:href="#m383be65303" x="73.131333" y="38.84399" style="fill: #ff7f0e; stroke: #ff7f0e; stroke-width: 1.5"/>
     <use xlink:href="#m383be65303" x="76.410671" y="39.141245" style="fill: #ff7f0e; stroke: #ff7f0e; stroke-width: 1.5"/>
     <use xlink:href="#m383be65303" x="79.69001" y="40.292318" style="fill: #ff7f0e; stroke: #ff7f0e; stroke-width: 1.5"/>
     <use xlink:href="#m383be65303" x="82.969349" y="40.466241" style="fill: #ff7f0e; stroke: #ff7f0e; stroke-width: 1.5"/>
     <use xlink:href="#m383be65303" x="86.248688" y="40.403072" style="fill: #ff7f0e; stroke: #ff7f0e; stroke-width: 1.5"/>
     <use xlink:href="#m383be65303" x="89.528027" y="40.749826" style="fill: #ff7f0e; stroke: #ff7f0e; stroke-width: 1.5"/>
     <use xlink:href="#m383be65303" x="92.807366" y="41.128397" style="fill: #ff7f0e; stroke: #ff7f0e; stroke-width: 1.5"/>
     <use xlink:href="#m383be65303" x="96.086705" y="41.909987" style="fill: #ff7f0e; stroke: #ff7f0e; stroke-width: 1.5"/>
     <use xlink:href="#m383be65303" x="99.366043" y="42.050041" style="fill: #ff7f0e; stroke: #ff7f0e; stroke-width: 1.5"/>
     <use xlink:href="#m383be65303" x="102.645382" y="40.983081" style="fill: #ff7f0e; stroke: #ff7f0e; stroke-width: 1.5"/>
     <use xlink:href="#m383be65303" x="105.924721" y="43.172892" style="fill: #ff7f0e; stroke: #ff7f0e; stroke-width: 1.5"/>
     <use xlink:href="#m383be65303" x="109.20406" y="44.030103" style="fill: #ff7f0e; stroke: #ff7f0e; stroke-width: 1.5"/>
     <use xlink:href="#m383be65303" x="112.483399" y="42.833355" style="fill: #ff7f0e; stroke: #ff7f0e; stroke-width: 1.5"/>
     <use xlink:href="#m383be65303" x="115.762738" y="43.621265" style="fill: #ff7f0e; stroke: #ff7f0e; stroke-width: 1.5"/>
     <use xlink:href="#m383be65303" x="119.042076" y="44.241376" style="fill: #ff7f0e; stroke: #ff7f0e; stroke-width: 1.5"/>
     <use xlink:href="#m383be65303" x="122.321415" y="45.347085" style="fill: #ff7f0e; stroke: #ff7f0e; stroke-width: 1.5"/>
     <use xlink:href="#m383be65303" x="125.600754" y="45.58521" style="fill: #ff7f0e; stroke: #ff7f0e; stroke-width: 1.5"/>
     <use xlink:href="#m383be65303" x="128.880093" y="46.244596" style="fill: #ff7f0e; stroke: #ff7f0e; stroke-width: 1.5"/>
     <use xlink:href="#m383be65303" x="132.159432" y="45.547907" style="fill: #ff7f0e; stroke: #ff7f0e; stroke-width: 1.5"/>
     <use xlink:href="#m383be65303" x="135.438771" y="47.323976" style="fill: #ff7f0e; stroke: #ff7f0e; stroke-width: 1.5"/>
     <use xlink:href="#m383be65303" x="138.71811" y="48.537487" style="fill: #ff7f0e; stroke: #ff7f0e; stroke-width: 1.5"/>
     <use xlink:href="#m383be65303" x="141.997448" y="47.804473" style="fill: #ff7f0e; stroke: #ff7f0e; stroke-width: 1.5"/>
     <use xlink:href="#m383be65303" x="145.276787" y="47.899215" style="fill: #ff7f0e; stroke: #ff7f0e; stroke-width: 1.5"/>
     <use xlink:href="#m383be65303" x="148.556126" y="49.259237" style="fill: #ff7f0e; stroke: #ff7f0e; stroke-width: 1.5"/>
     <use xlink:href="#m383be65303" x="151.835465" y="50.384709" style="fill: #ff7f0e; stroke: #ff7f0e; stroke-width: 1.5"/>
     <use xlink:href="#m383be65303" x="155.114804" y="50.877403" style="fill: #ff7f0e; stroke: #ff7f0e; stroke-width: 1.5"/>
     <use xlink:href="#m383be65303" x="158.394143" y="50.636164" style="fill: #ff7f0e; stroke: #ff7f0e; stroke-width: 1.5"/>
     <use xlink:href="#m383be65303" x="161.673481" y="51.806664" style="fill: #ff7f0e; stroke: #ff7f0e; stroke-width: 1.5"/>
     <use xlink:href="#m383be65303" x="164.95282" y="53.403735" style="fill: #ff7f0e; stroke: #ff7f0e; stroke-width: 1.5"/>
     <use xlink:href="#m383be65303" x="168.232159" y="51.944172" style="fill: #ff7f0e; stroke: #ff7f0e; stroke-width: 1.5"/>
     <use xlink:href="#m383be65303" x="171.511498" y="52.261924" style="fill: #ff7f0e; stroke: #ff7f0e; stroke-width: 1.5"/>
     <use xlink:href="#m383be65303" x="174.790837" y="54.775124" style="fill: #ff7f0e; stroke: #ff7f0e; stroke-width: 1.5"/>
     <use xlink:href="#m383be65303" x="178.070176" y="55.780467" style="fill: #ff7f0e; stroke: #ff7f0e; stroke-width: 1.5"/>
     <use xlink:href="#m383be65303" x="181.349514" y="55.068097" style="fill: #ff7f0e; stroke: #ff7f0e; stroke-width: 1.5"/>
     <use xlink:href="#m383be65303" x="184.628853" y="54.461114" style="fill: #ff7f0e; stroke: #ff7f0e; stroke-width: 1.5"/>
     <use xlink:href="#m383be65303" x="187.908192" y="56.755886" style="fill: #ff7f0e; stroke: #ff7f0e; stroke-width: 1.5"/>
     <use xlink:href="#m383be65303" x="191.187531" y="58.921679" style="fill: #ff7f0e; stroke: #ff7f0e; stroke-width: 1.5"/>
     <use xlink:href="#m383be65303" x="194.46687" y="58.44957" style="fill: #ff7f0e; stroke: #ff7f0e; stroke-width: 1.5"/>
     <use xlink:href="#m383be65303" x="197.746209" y="61.23771" style="fill: #ff7f0e; stroke: #ff7f0e; stroke-width: 1.5"/>
     <use xlink:href="#m383be65303" x="201.025548" y="58.914102" style="fill: #ff7f0e; stroke: #ff7f0e; stroke-width: 1.5"/>
     <use xlink:href="#m383be65303" x="204.304886" y="61.657256" style="fill: #ff7f0e; stroke: #ff7f0e; stroke-width: 1.5"/>
     <use xlink:href="#m383be65303" x="207.584225" y="60.335563" style="fill: #ff7f0e; stroke: #ff7f0e; stroke-width: 1.5"/>
     <use xlink:href="#m383be65303" x="210.863564" y="62.680198" style="fill: #ff7f0e; stroke: #ff7f0e; stroke-width: 1.5"/>
     <use xlink:href="#m383be65303" x="214.142903" y="62.115216" style="fill: #ff7f0e; stroke: #ff7f0e; stroke-width: 1.5"/>
     <use xlink:href="#m383be65303" x="217.422242" y="93.303333" style="fill: #ff7f0e; stroke: #ff7f0e; stroke-width: 1.5"/>
     <use xlink:href="#m383be65303" x="220.701581" y="91.774277" style="fill: #ff7f0e; stroke: #ff7f0e; stroke-width: 1.5"/>
     <use xlink:href="#m383be65303" x="223.980919" y="68.738783" style="fill: #ff7f0e; stroke: #ff7f0e; stroke-width: 1.5"/>
     <use xlink:href="#m383be65303" x="227.260258" y="207.537763" style="fill: #ff7f0e; stroke: #ff7f0e; stroke-width: 1.5"/>
     <use xlink:href="#m383be65303" x="230.539597" y="167.596217" style="fill: #ff7f0e; stroke: #ff7f0e; stroke-width: 1.5"/>
     <use xlink:href="#m383be65303" x="233.818936" y="179.529269" style="fill: #ff7f0e; stroke: #ff7f0e; stroke-width: 1.5"/>
     <use xlink:href="#m383be65303" x="237.098275" y="249.720602" style="fill: #ff7f0e; stroke: #ff7f0e; stroke-width: 1.5"/>
     <use xlink:href="#m383be65303" x="240.377614" y="217.143206" style="fill: #ff7f0e; stroke: #ff7f0e; stroke-width: 1.5"/>
     <use xlink:href="#m383be65303" x="243.656952" y="260.128287" style="fill: #ff7f0e; stroke: #ff7f0e; stroke-width: 1.5"/>
     <use xlink:href="#m383be65303" x="246.936291" y="257.514708" style="fill: #ff7f0e; stroke: #ff7f0e; stroke-width: 1.5"/>
     <use xlink:href="#m383be65303" x="250.21563" y="266.601454" style="fill: #ff7f0e; stroke: #ff7f0e; stroke-width: 1.5"/>
     <use xlink:href="#m383be65303" x="253.494969" y="263.952889" style="fill: #ff7f0e; stroke: #ff7f0e; stroke-width: 1.5"/>
     <use xlink:href="#m383be65303" x="256.774308" y="264.770445" style="fill: #ff7f0e; stroke: #ff7f0e; stroke-width: 1.5"/>
     <use xlink:href="#m383be65303" x="260.053647" y="263.736568" style="fill: #ff7f0e; stroke: #ff7f0e; stroke-width: 1.5"/>
     <use xlink:href="#m383be65303" x="263.332986" y="262.317058" style="fill: #ff7f0e; stroke: #ff7f0e; stroke-width: 1.5"/>
     <use xlink:href="#m383be65303" x="266.612324" y="268.90906" style="fill: #ff7f0e; stroke: #ff7f0e; stroke-width: 1.5"/>
     <use xlink:href="#m383be65303" x="269.891663" y="268.391476" style="fill: #ff7f0e; stroke: #ff7f0e; stroke-width: 1.5"/>
     <use xlink:href="#m383be65303" x="273.171002" y="267.66845" style="fill: #ff7f0e; stroke: #ff7f0e; stroke-width: 1.5"/>
     <use xlink:href="#m383be65303" x="276.450341" y="263.954359" style="fill: #ff7f0e; stroke: #ff7f0e; stroke-width: 1.5"/>
     <use xlink:href="#m383be65303" x="279.72968" y="261.378812" style="fill: #ff7f0e; stroke: #ff7f0e; stroke-width: 1.5"/>
     <use xlink:href="#m383be65303" x="283.009019" y="268.80777" style="fill: #ff7f0e; stroke: #ff7f0e; stroke-width: 1.5"/>
     <use xlink:href="#m383be65303" x="286.288357" y="270.591043" style="fill: #ff7f0e; stroke: #ff7f0e; stroke-width: 1.5"/>
     <use xlink:href="#m383be65303" x="289.567696" y="266.675114" style="fill: #ff7f0e; stroke: #ff7f0e; stroke-width: 1.5"/>
     <use xlink:href="#m383be65303" x="292.847035" y="268.475719" style="fill: #ff7f0e; stroke: #ff7f0e; stroke-width: 1.5"/>
     <use xlink:href="#m383be65303" x="296.126374" y="265.561929" style="fill: #ff7f0e; stroke: #ff7f0e; stroke-width: 1.5"/>
     <use xlink:href="#m383be65303" x="299.405713" y="268.711453" style="fill: #ff7f0e; stroke: #ff7f0e; stroke-width: 1.5"/>
     <use xlink:href="#m383be65303" x="302.685052" y="270.961615" style="fill: #ff7f0e; stroke: #ff7f0e; stroke-width: 1.5"/>
     <use xlink:href="#m383be65303" x="305.96439" y="270.403767" style="fill: #ff7f0e; stroke: #ff7f0e; stroke-width: 1.5"/>
     <use xlink:href="#m383be65303" x="309.243729" y="266.365827" style="fill: #ff7f0e; stroke: #ff7f0e; stroke-width: 1.5"/>
     <use xlink:href="#m383be65303" x="312.523068" y="272.182696" style="fill: #ff7f0e; stroke: #ff7f0e; stroke-width: 1.5"/>
     <use xlink:href="#m383be65303" x="315.802407" y="266.673142" style="fill: #ff7f0e; stroke: #ff7f0e; stroke-width: 1.5"/>
     <use xlink:href="#m383be65303" x="319.081746" y="270.210438" style="fill: #ff7f0e; stroke: #ff7f0e; stroke-width: 1.5"/>
     <use xlink:href="#m383be65303" x="322.361085" y="270.192807" style="fill: #ff7f0e; stroke: #ff7f0e; stroke-width: 1.5"/>
     <use xlink:href="#m383be65303" x="325.640424" y="267.693633" style="fill: #ff7f0e; stroke: #ff7f0e; stroke-width: 1.5"/>
     <use xlink:href="#m383be65303" x="328.919762" y="275.358515" style="fill: #ff7f0e; stroke: #ff7f0e; stroke-width: 1.5"/>
     <use xlink:href="#m383be65303" x="332.199101" y="276.336" style="fill: #ff7f0e; stroke: #ff7f0e; stroke-width: 1.5"/>
     <use xlink:href="#m383be65303" x="335.47844" y="275.374214" style="fill: #ff7f0e; stroke: #ff7f0e; stroke-width: 1.5"/>
     <use xlink:href="#m383be65303" x="338.757779" y="272.39358" style="fill: #ff7f0e; stroke: #ff7f0e; stroke-width: 1.5"/>
     <use xlink:href="#m383be65303" x="342.037118" y="275.599745" style="fill: #ff7f0e; stroke: #ff7f0e; stroke-width: 1.5"/>
     <use xlink:href="#m383be65303" x="345.316457" y="271.956203" style="fill: #ff7f0e; stroke: #ff7f0e; stroke-width: 1.5"/>
     <use xlink:href="#m383be65303" x="348.595795" y="275.195826" style="fill: #ff7f0e; stroke: #ff7f0e; stroke-width: 1.5"/>
     <use xlink:href="#m383be65303" x="351.875134" y="274.387236" style="fill: #ff7f0e; stroke: #ff7f0e; stroke-width: 1.5"/>
     <use xlink:href="#m383be65303" x="355.154473" y="274.638287" style="fill: #ff7f0e; stroke: #ff7f0e; stroke-width: 1.5"/>
     <use xlink:href="#m383be65303" x="358.433812" y="273.382747" style="fill: #ff7f0e; stroke: #ff7f0e; stroke-width: 1.5"/>
     <use xlink:href="#m383be65303" x="361.713151" y="274.640117" style="fill: #ff7f0e; stroke: #ff7f0e; stroke-width: 1.5"/>
     <use xlink:href="#m383be65303" x="364.99249" y="271.019098" style="fill: #ff7f0e; stroke: #ff7f0e; stroke-width: 1.5"/>
     <use xlink:href="#m383be65303" x="368.271829" y="272.404055" style="fill: #ff7f0e; stroke: #ff7f0e; stroke-width: 1.5"/>
     <use xlink:href="#m383be65303" x="371.551167" y="274.563289" style="fill: #ff7f0e; stroke: #ff7f0e; stroke-width: 1.5"/>
     <use xlink:href="#m383be65303" x="374.830506" y="272.483155" style="fill: #ff7f0e; stroke: #ff7f0e; stroke-width: 1.5"/>
     <use xlink:href="#m383be65303" x="378.109845" y="274.825208" style="fill: #ff7f0e; stroke: #ff7f0e; stroke-width: 1.5"/>
     <use xlink:href="#m383be65303" x="381.389184" y="271.791911" style="fill: #ff7f0e; stroke: #ff7f0e; stroke-width: 1.5"/>
     <use xlink:href="#m383be65303" x="384.668523" y="271.234957" style="fill: #ff7f0e; stroke: #ff7f0e; stroke-width: 1.5"/>
    </g>
   </g>
   <g id="matplotlib.axis_1">
    <g id="xtick_1">
     <g id="line2d_1">
      <defs>
       <path id="m945f69d9d1" d="M 0 0 
L 0 3.5 
" style="stroke: #000000; stroke-width: 0.8"/>
      </defs>
      <g>
       <use xlink:href="#m945f69d9d1" x="60.013977" y="288.432" style="stroke: #000000; stroke-width: 0.8"/>
      </g>
     </g>
     <g id="text_1">
      <!-- 0.50 -->
      <g transform="translate(48.881165 303.030437)scale(0.1 -0.1)">
       <defs>
        <path id="DejaVuSans-30" d="M 2034 4250 
Q 1547 4250 1301 3770 
Q 1056 3291 1056 2328 
Q 1056 1369 1301 889 
Q 1547 409 2034 409 
Q 2525 409 2770 889 
Q 3016 1369 3016 2328 
Q 3016 3291 2770 3770 
Q 2525 4250 2034 4250 
z
M 2034 4750 
Q 2819 4750 3233 4129 
Q 3647 3509 3647 2328 
Q 3647 1150 3233 529 
Q 2819 -91 2034 -91 
Q 1250 -91 836 529 
Q 422 1150 422 2328 
Q 422 3509 836 4129 
Q 1250 4750 2034 4750 
z
" transform="scale(0.015625)"/>
        <path id="DejaVuSans-2e" d="M 684 794 
L 1344 794 
L 1344 0 
L 684 0 
L 684 794 
z
" transform="scale(0.015625)"/>
        <path id="DejaVuSans-35" d="M 691 4666 
L 3169 4666 
L 3169 4134 
L 1269 4134 
L 1269 2991 
Q 1406 3038 1543 3061 
Q 1681 3084 1819 3084 
Q 2600 3084 3056 2656 
Q 3513 2228 3513 1497 
Q 3513 744 3044 326 
Q 2575 -91 1722 -91 
Q 1428 -91 1123 -41 
Q 819 9 494 109 
L 494 744 
Q 775 591 1075 516 
Q 1375 441 1709 441 
Q 2250 441 2565 725 
Q 2881 1009 2881 1497 
Q 2881 1984 2565 2268 
Q 2250 2553 1709 2553 
Q 1456 2553 1204 2497 
Q 953 2441 691 2322 
L 691 4666 
z
" transform="scale(0.015625)"/>
       </defs>
       <use xlink:href="#DejaVuSans-30"/>
       <use xlink:href="#DejaVuSans-2e" x="63.623047"/>
       <use xlink:href="#DejaVuSans-35" x="95.410156"/>
       <use xlink:href="#DejaVuSans-30" x="159.033203"/>
      </g>
     </g>
    </g>
    <g id="xtick_2">
     <g id="line2d_2">
      <g>
       <use xlink:href="#m945f69d9d1" x="124.944886" y="288.432" style="stroke: #000000; stroke-width: 0.8"/>
      </g>
     </g>
     <g id="text_2">
      <!-- 0.55 -->
      <g transform="translate(113.812074 303.030437)scale(0.1 -0.1)">
       <use xlink:href="#DejaVuSans-30"/>
       <use xlink:href="#DejaVuSans-2e" x="63.623047"/>
       <use xlink:href="#DejaVuSans-35" x="95.410156"/>
       <use xlink:href="#DejaVuSans-35" x="159.033203"/>
      </g>
     </g>
    </g>
    <g id="xtick_3">
     <g id="line2d_3">
      <g>
       <use xlink:href="#m945f69d9d1" x="189.875795" y="288.432" style="stroke: #000000; stroke-width: 0.8"/>
      </g>
     </g>
     <g id="text_3">
      <!-- 0.60 -->
      <g transform="translate(178.742983 303.030437)scale(0.1 -0.1)">
       <defs>
        <path id="DejaVuSans-36" d="M 2113 2584 
Q 1688 2584 1439 2293 
Q 1191 2003 1191 1497 
Q 1191 994 1439 701 
Q 1688 409 2113 409 
Q 2538 409 2786 701 
Q 3034 994 3034 1497 
Q 3034 2003 2786 2293 
Q 2538 2584 2113 2584 
z
M 3366 4563 
L 3366 3988 
Q 3128 4100 2886 4159 
Q 2644 4219 2406 4219 
Q 1781 4219 1451 3797 
Q 1122 3375 1075 2522 
Q 1259 2794 1537 2939 
Q 1816 3084 2150 3084 
Q 2853 3084 3261 2657 
Q 3669 2231 3669 1497 
Q 3669 778 3244 343 
Q 2819 -91 2113 -91 
Q 1303 -91 875 529 
Q 447 1150 447 2328 
Q 447 3434 972 4092 
Q 1497 4750 2381 4750 
Q 2619 4750 2861 4703 
Q 3103 4656 3366 4563 
z
" transform="scale(0.015625)"/>
       </defs>
       <use xlink:href="#DejaVuSans-30"/>
       <use xlink:href="#DejaVuSans-2e" x="63.623047"/>
       <use xlink:href="#DejaVuSans-36" x="95.410156"/>
       <use xlink:href="#DejaVuSans-30" x="159.033203"/>
      </g>
     </g>
    </g>
    <g id="xtick_4">
     <g id="line2d_4">
      <g>
       <use xlink:href="#m945f69d9d1" x="254.806705" y="288.432" style="stroke: #000000; stroke-width: 0.8"/>
      </g>
     </g>
     <g id="text_4">
      <!-- 0.65 -->
      <g transform="translate(243.673892 303.030437)scale(0.1 -0.1)">
       <use xlink:href="#DejaVuSans-30"/>
       <use xlink:href="#DejaVuSans-2e" x="63.623047"/>
       <use xlink:href="#DejaVuSans-36" x="95.410156"/>
       <use xlink:href="#DejaVuSans-35" x="159.033203"/>
      </g>
     </g>
    </g>
    <g id="xtick_5">
     <g id="line2d_5">
      <g>
       <use xlink:href="#m945f69d9d1" x="319.737614" y="288.432" style="stroke: #000000; stroke-width: 0.8"/>
      </g>
     </g>
     <g id="text_5">
      <!-- 0.70 -->
      <g transform="translate(308.604801 303.030437)scale(0.1 -0.1)">
       <defs>
        <path id="DejaVuSans-37" d="M 525 4666 
L 3525 4666 
L 3525 4397 
L 1831 0 
L 1172 0 
L 2766 4134 
L 525 4134 
L 525 4666 
z
" transform="scale(0.015625)"/>
       </defs>
       <use xlink:href="#DejaVuSans-30"/>
       <use xlink:href="#DejaVuSans-2e" x="63.623047"/>
       <use xlink:href="#DejaVuSans-37" x="95.410156"/>
       <use xlink:href="#DejaVuSans-30" x="159.033203"/>
      </g>
     </g>
    </g>
    <g id="xtick_6">
     <g id="line2d_6">
      <g>
       <use xlink:href="#m945f69d9d1" x="384.668523" y="288.432" style="stroke: #000000; stroke-width: 0.8"/>
      </g>
     </g>
     <g id="text_6">
      <!-- 0.75 -->
      <g transform="translate(373.53571 303.030437)scale(0.1 -0.1)">
       <use xlink:href="#DejaVuSans-30"/>
       <use xlink:href="#DejaVuSans-2e" x="63.623047"/>
       <use xlink:href="#DejaVuSans-37" x="95.410156"/>
       <use xlink:href="#DejaVuSans-35" x="159.033203"/>
      </g>
     </g>
    </g>
    <g id="text_7">
     <!-- $\eta$ -->
     <g transform="translate(219.14125 316.68825)scale(0.1 -0.1)">
      <defs>
       <path id="DejaVuSans-Oblique-3b7" d="M 3703 2113 
L 3034 -1331 
L 2459 -1331 
L 3125 2094 
Q 3222 2591 3075 2838 
Q 2931 3084 2544 3084 
Q 2078 3084 1750 2788 
Q 1425 2491 1325 1978 
L 941 0 
L 363 0 
L 1044 3500 
L 1622 3500 
L 1516 2956 
Q 1781 3272 2094 3428 
Q 2403 3584 2769 3584 
Q 3372 3584 3609 3213 
Q 3844 2838 3703 2113 
z
" transform="scale(0.015625)"/>
      </defs>
      <use xlink:href="#DejaVuSans-Oblique-3b7"/>
     </g>
    </g>
   </g>
   <g id="matplotlib.axis_2">
    <g id="ytick_1">
     <g id="line2d_7">
      <defs>
       <path id="m1ef9dccc05" d="M 0 0 
L -3.5 0 
" style="stroke: #000000; stroke-width: 0.8"/>
      </defs>
      <g>
       <use xlink:href="#m1ef9dccc05" x="43.78125" y="281.387156" style="stroke: #000000; stroke-width: 0.8"/>
      </g>
     </g>
     <g id="text_8">
      <!-- 0.1 -->
      <g transform="translate(20.878125 285.186375)scale(0.1 -0.1)">
       <defs>
        <path id="DejaVuSans-31" d="M 794 531 
L 1825 531 
L 1825 4091 
L 703 3866 
L 703 4441 
L 1819 4666 
L 2450 4666 
L 2450 531 
L 3481 531 
L 3481 0 
L 794 0 
L 794 531 
z
" transform="scale(0.015625)"/>
       </defs>
       <use xlink:href="#DejaVuSans-30"/>
       <use xlink:href="#DejaVuSans-2e" x="63.623047"/>
       <use xlink:href="#DejaVuSans-31" x="95.410156"/>
      </g>
     </g>
    </g>
    <g id="ytick_2">
     <g id="line2d_8">
      <g>
       <use xlink:href="#m1ef9dccc05" x="43.78125" y="251.213142" style="stroke: #000000; stroke-width: 0.8"/>
      </g>
     </g>
     <g id="text_9">
      <!-- 0.2 -->
      <g transform="translate(20.878125 255.012361)scale(0.1 -0.1)">
       <defs>
        <path id="DejaVuSans-32" d="M 1228 531 
L 3431 531 
L 3431 0 
L 469 0 
L 469 531 
Q 828 903 1448 1529 
Q 2069 2156 2228 2338 
Q 2531 2678 2651 2914 
Q 2772 3150 2772 3378 
Q 2772 3750 2511 3984 
Q 2250 4219 1831 4219 
Q 1534 4219 1204 4116 
Q 875 4013 500 3803 
L 500 4441 
Q 881 4594 1212 4672 
Q 1544 4750 1819 4750 
Q 2544 4750 2975 4387 
Q 3406 4025 3406 3419 
Q 3406 3131 3298 2873 
Q 3191 2616 2906 2266 
Q 2828 2175 2409 1742 
Q 1991 1309 1228 531 
z
" transform="scale(0.015625)"/>
       </defs>
       <use xlink:href="#DejaVuSans-30"/>
       <use xlink:href="#DejaVuSans-2e" x="63.623047"/>
       <use xlink:href="#DejaVuSans-32" x="95.410156"/>
      </g>
     </g>
    </g>
    <g id="ytick_3">
     <g id="line2d_9">
      <g>
       <use xlink:href="#m1ef9dccc05" x="43.78125" y="221.039128" style="stroke: #000000; stroke-width: 0.8"/>
      </g>
     </g>
     <g id="text_10">
      <!-- 0.3 -->
      <g transform="translate(20.878125 224.838346)scale(0.1 -0.1)">
       <defs>
        <path id="DejaVuSans-33" d="M 2597 2516 
Q 3050 2419 3304 2112 
Q 3559 1806 3559 1356 
Q 3559 666 3084 287 
Q 2609 -91 1734 -91 
Q 1441 -91 1130 -33 
Q 819 25 488 141 
L 488 750 
Q 750 597 1062 519 
Q 1375 441 1716 441 
Q 2309 441 2620 675 
Q 2931 909 2931 1356 
Q 2931 1769 2642 2001 
Q 2353 2234 1838 2234 
L 1294 2234 
L 1294 2753 
L 1863 2753 
Q 2328 2753 2575 2939 
Q 2822 3125 2822 3475 
Q 2822 3834 2567 4026 
Q 2313 4219 1838 4219 
Q 1578 4219 1281 4162 
Q 984 4106 628 3988 
L 628 4550 
Q 988 4650 1302 4700 
Q 1616 4750 1894 4750 
Q 2613 4750 3031 4423 
Q 3450 4097 3450 3541 
Q 3450 3153 3228 2886 
Q 3006 2619 2597 2516 
z
" transform="scale(0.015625)"/>
       </defs>
       <use xlink:href="#DejaVuSans-30"/>
       <use xlink:href="#DejaVuSans-2e" x="63.623047"/>
       <use xlink:href="#DejaVuSans-33" x="95.410156"/>
      </g>
     </g>
    </g>
    <g id="ytick_4">
     <g id="line2d_10">
      <g>
       <use xlink:href="#m1ef9dccc05" x="43.78125" y="190.865113" style="stroke: #000000; stroke-width: 0.8"/>
      </g>
     </g>
     <g id="text_11">
      <!-- 0.4 -->
      <g transform="translate(20.878125 194.664332)scale(0.1 -0.1)">
       <defs>
        <path id="DejaVuSans-34" d="M 2419 4116 
L 825 1625 
L 2419 1625 
L 2419 4116 
z
M 2253 4666 
L 3047 4666 
L 3047 1625 
L 3713 1625 
L 3713 1100 
L 3047 1100 
L 3047 0 
L 2419 0 
L 2419 1100 
L 313 1100 
L 313 1709 
L 2253 4666 
z
" transform="scale(0.015625)"/>
       </defs>
       <use xlink:href="#DejaVuSans-30"/>
       <use xlink:href="#DejaVuSans-2e" x="63.623047"/>
       <use xlink:href="#DejaVuSans-34" x="95.410156"/>
      </g>
     </g>
    </g>
    <g id="ytick_5">
     <g id="line2d_11">
      <g>
       <use xlink:href="#m1ef9dccc05" x="43.78125" y="160.691099" style="stroke: #000000; stroke-width: 0.8"/>
      </g>
     </g>
     <g id="text_12">
      <!-- 0.5 -->
      <g transform="translate(20.878125 164.490318)scale(0.1 -0.1)">
       <use xlink:href="#DejaVuSans-30"/>
       <use xlink:href="#DejaVuSans-2e" x="63.623047"/>
       <use xlink:href="#DejaVuSans-35" x="95.410156"/>
      </g>
     </g>
    </g>
    <g id="ytick_6">
     <g id="line2d_12">
      <g>
       <use xlink:href="#m1ef9dccc05" x="43.78125" y="130.517085" style="stroke: #000000; stroke-width: 0.8"/>
      </g>
     </g>
     <g id="text_13">
      <!-- 0.6 -->
      <g transform="translate(20.878125 134.316304)scale(0.1 -0.1)">
       <use xlink:href="#DejaVuSans-30"/>
       <use xlink:href="#DejaVuSans-2e" x="63.623047"/>
       <use xlink:href="#DejaVuSans-36" x="95.410156"/>
      </g>
     </g>
    </g>
    <g id="ytick_7">
     <g id="line2d_13">
      <g>
       <use xlink:href="#m1ef9dccc05" x="43.78125" y="100.343071" style="stroke: #000000; stroke-width: 0.8"/>
      </g>
     </g>
     <g id="text_14">
      <!-- 0.7 -->
      <g transform="translate(20.878125 104.142289)scale(0.1 -0.1)">
       <use xlink:href="#DejaVuSans-30"/>
       <use xlink:href="#DejaVuSans-2e" x="63.623047"/>
       <use xlink:href="#DejaVuSans-37" x="95.410156"/>
      </g>
     </g>
    </g>
    <g id="ytick_8">
     <g id="line2d_14">
      <g>
       <use xlink:href="#m1ef9dccc05" x="43.78125" y="70.169057" style="stroke: #000000; stroke-width: 0.8"/>
      </g>
     </g>
     <g id="text_15">
      <!-- 0.8 -->
      <g transform="translate(20.878125 73.968275)scale(0.1 -0.1)">
       <defs>
        <path id="DejaVuSans-38" d="M 2034 2216 
Q 1584 2216 1326 1975 
Q 1069 1734 1069 1313 
Q 1069 891 1326 650 
Q 1584 409 2034 409 
Q 2484 409 2743 651 
Q 3003 894 3003 1313 
Q 3003 1734 2745 1975 
Q 2488 2216 2034 2216 
z
M 1403 2484 
Q 997 2584 770 2862 
Q 544 3141 544 3541 
Q 544 4100 942 4425 
Q 1341 4750 2034 4750 
Q 2731 4750 3128 4425 
Q 3525 4100 3525 3541 
Q 3525 3141 3298 2862 
Q 3072 2584 2669 2484 
Q 3125 2378 3379 2068 
Q 3634 1759 3634 1313 
Q 3634 634 3220 271 
Q 2806 -91 2034 -91 
Q 1263 -91 848 271 
Q 434 634 434 1313 
Q 434 1759 690 2068 
Q 947 2378 1403 2484 
z
M 1172 3481 
Q 1172 3119 1398 2916 
Q 1625 2713 2034 2713 
Q 2441 2713 2670 2916 
Q 2900 3119 2900 3481 
Q 2900 3844 2670 4047 
Q 2441 4250 2034 4250 
Q 1625 4250 1398 4047 
Q 1172 3844 1172 3481 
z
" transform="scale(0.015625)"/>
       </defs>
       <use xlink:href="#DejaVuSans-30"/>
       <use xlink:href="#DejaVuSans-2e" x="63.623047"/>
       <use xlink:href="#DejaVuSans-38" x="95.410156"/>
      </g>
     </g>
    </g>
    <g id="ytick_9">
     <g id="line2d_15">
      <g>
       <use xlink:href="#m1ef9dccc05" x="43.78125" y="39.995042" style="stroke: #000000; stroke-width: 0.8"/>
      </g>
     </g>
     <g id="text_16">
      <!-- 0.9 -->
      <g transform="translate(20.878125 43.794261)scale(0.1 -0.1)">
       <defs>
        <path id="DejaVuSans-39" d="M 703 97 
L 703 672 
Q 941 559 1184 500 
Q 1428 441 1663 441 
Q 2288 441 2617 861 
Q 2947 1281 2994 2138 
Q 2813 1869 2534 1725 
Q 2256 1581 1919 1581 
Q 1219 1581 811 2004 
Q 403 2428 403 3163 
Q 403 3881 828 4315 
Q 1253 4750 1959 4750 
Q 2769 4750 3195 4129 
Q 3622 3509 3622 2328 
Q 3622 1225 3098 567 
Q 2575 -91 1691 -91 
Q 1453 -91 1209 -44 
Q 966 3 703 97 
z
M 1959 2075 
Q 2384 2075 2632 2365 
Q 2881 2656 2881 3163 
Q 2881 3666 2632 3958 
Q 2384 4250 1959 4250 
Q 1534 4250 1286 3958 
Q 1038 3666 1038 3163 
Q 1038 2656 1286 2365 
Q 1534 2075 1959 2075 
z
" transform="scale(0.015625)"/>
       </defs>
       <use xlink:href="#DejaVuSans-30"/>
       <use xlink:href="#DejaVuSans-2e" x="63.623047"/>
       <use xlink:href="#DejaVuSans-39" x="95.410156"/>
      </g>
     </g>
    </g>
    <g id="text_17">
     <!-- $v_a$ -->
     <g transform="translate(14.798438 160.626)rotate(-90)scale(0.1 -0.1)">
      <defs>
       <path id="DejaVuSans-Oblique-76" d="M 459 3500 
L 1069 3500 
L 1581 525 
L 3256 3500 
L 3866 3500 
L 1875 0 
L 1100 0 
L 459 3500 
z
" transform="scale(0.015625)"/>
       <path id="DejaVuSans-Oblique-61" d="M 3438 1997 
L 3047 0 
L 2472 0 
L 2578 531 
Q 2325 219 2001 64 
Q 1678 -91 1281 -91 
Q 834 -91 548 182 
Q 263 456 263 884 
Q 263 1497 752 1853 
Q 1241 2209 2100 2209 
L 2900 2209 
L 2931 2363 
Q 2938 2388 2941 2417 
Q 2944 2447 2944 2509 
Q 2944 2788 2717 2942 
Q 2491 3097 2081 3097 
Q 1800 3097 1504 3025 
Q 1209 2953 897 2809 
L 997 3341 
Q 1322 3463 1633 3523 
Q 1944 3584 2234 3584 
Q 2853 3584 3176 3315 
Q 3500 3047 3500 2534 
Q 3500 2431 3484 2292 
Q 3469 2153 3438 1997 
z
M 2816 1759 
L 2241 1759 
Q 1534 1759 1195 1570 
Q 856 1381 856 984 
Q 856 709 1029 553 
Q 1203 397 1509 397 
Q 1978 397 2328 733 
Q 2678 1069 2791 1631 
L 2816 1759 
z
" transform="scale(0.015625)"/>
      </defs>
      <use xlink:href="#DejaVuSans-Oblique-76" transform="translate(0 0.3125)"/>
      <use xlink:href="#DejaVuSans-Oblique-61" transform="translate(59.179688 -16.09375)scale(0.7)"/>
     </g>
    </g>
   </g>
   <g id="patch_3">
    <path d="M 43.78125 288.432 
L 43.78125 22.32 
" style="fill: none; stroke: #000000; stroke-width: 0.8; stroke-linejoin: miter; stroke-linecap: square"/>
   </g>
   <g id="patch_4">
    <path d="M 400.90125 288.432 
L 400.90125 22.32 
" style="fill: none; stroke: #000000; stroke-width: 0.8; stroke-linejoin: miter; stroke-linecap: square"/>
   </g>
   <g id="patch_5">
    <path d="M 43.78125 288.432 
L 400.90125 288.432 
" style="fill: none; stroke: #000000; stroke-width: 0.8; stroke-linejoin: miter; stroke-linecap: square"/>
   </g>
   <g id="patch_6">
    <path d="M 43.78125 22.32 
L 400.90125 22.32 
" style="fill: none; stroke: #000000; stroke-width: 0.8; stroke-linejoin: miter; stroke-linecap: square"/>
   </g>
   <g id="text_18">
    <!-- $v_a$ as a function of $\eta$ -->
    <g transform="translate(161.92125 16.32)scale(0.12 -0.12)">
     <defs>
      <path id="DejaVuSans-20" transform="scale(0.015625)"/>
      <path id="DejaVuSans-61" d="M 2194 1759 
Q 1497 1759 1228 1600 
Q 959 1441 959 1056 
Q 959 750 1161 570 
Q 1363 391 1709 391 
Q 2188 391 2477 730 
Q 2766 1069 2766 1631 
L 2766 1759 
L 2194 1759 
z
M 3341 1997 
L 3341 0 
L 2766 0 
L 2766 531 
Q 2569 213 2275 61 
Q 1981 -91 1556 -91 
Q 1019 -91 701 211 
Q 384 513 384 1019 
Q 384 1609 779 1909 
Q 1175 2209 1959 2209 
L 2766 2209 
L 2766 2266 
Q 2766 2663 2505 2880 
Q 2244 3097 1772 3097 
Q 1472 3097 1187 3025 
Q 903 2953 641 2809 
L 641 3341 
Q 956 3463 1253 3523 
Q 1550 3584 1831 3584 
Q 2591 3584 2966 3190 
Q 3341 2797 3341 1997 
z
" transform="scale(0.015625)"/>
      <path id="DejaVuSans-73" d="M 2834 3397 
L 2834 2853 
Q 2591 2978 2328 3040 
Q 2066 3103 1784 3103 
Q 1356 3103 1142 2972 
Q 928 2841 928 2578 
Q 928 2378 1081 2264 
Q 1234 2150 1697 2047 
L 1894 2003 
Q 2506 1872 2764 1633 
Q 3022 1394 3022 966 
Q 3022 478 2636 193 
Q 2250 -91 1575 -91 
Q 1294 -91 989 -36 
Q 684 19 347 128 
L 347 722 
Q 666 556 975 473 
Q 1284 391 1588 391 
Q 1994 391 2212 530 
Q 2431 669 2431 922 
Q 2431 1156 2273 1281 
Q 2116 1406 1581 1522 
L 1381 1569 
Q 847 1681 609 1914 
Q 372 2147 372 2553 
Q 372 3047 722 3315 
Q 1072 3584 1716 3584 
Q 2034 3584 2315 3537 
Q 2597 3491 2834 3397 
z
" transform="scale(0.015625)"/>
      <path id="DejaVuSans-66" d="M 2375 4863 
L 2375 4384 
L 1825 4384 
Q 1516 4384 1395 4259 
Q 1275 4134 1275 3809 
L 1275 3500 
L 2222 3500 
L 2222 3053 
L 1275 3053 
L 1275 0 
L 697 0 
L 697 3053 
L 147 3053 
L 147 3500 
L 697 3500 
L 697 3744 
Q 697 4328 969 4595 
Q 1241 4863 1831 4863 
L 2375 4863 
z
" transform="scale(0.015625)"/>
      <path id="DejaVuSans-75" d="M 544 1381 
L 544 3500 
L 1119 3500 
L 1119 1403 
Q 1119 906 1312 657 
Q 1506 409 1894 409 
Q 2359 409 2629 706 
Q 2900 1003 2900 1516 
L 2900 3500 
L 3475 3500 
L 3475 0 
L 2900 0 
L 2900 538 
Q 2691 219 2414 64 
Q 2138 -91 1772 -91 
Q 1169 -91 856 284 
Q 544 659 544 1381 
z
M 1991 3584 
L 1991 3584 
z
" transform="scale(0.015625)"/>
      <path id="DejaVuSans-6e" d="M 3513 2113 
L 3513 0 
L 2938 0 
L 2938 2094 
Q 2938 2591 2744 2837 
Q 2550 3084 2163 3084 
Q 1697 3084 1428 2787 
Q 1159 2491 1159 1978 
L 1159 0 
L 581 0 
L 581 3500 
L 1159 3500 
L 1159 2956 
Q 1366 3272 1645 3428 
Q 1925 3584 2291 3584 
Q 2894 3584 3203 3211 
Q 3513 2838 3513 2113 
z
" transform="scale(0.015625)"/>
      <path id="DejaVuSans-63" d="M 3122 3366 
L 3122 2828 
Q 2878 2963 2633 3030 
Q 2388 3097 2138 3097 
Q 1578 3097 1268 2742 
Q 959 2388 959 1747 
Q 959 1106 1268 751 
Q 1578 397 2138 397 
Q 2388 397 2633 464 
Q 2878 531 3122 666 
L 3122 134 
Q 2881 22 2623 -34 
Q 2366 -91 2075 -91 
Q 1284 -91 818 406 
Q 353 903 353 1747 
Q 353 2603 823 3093 
Q 1294 3584 2113 3584 
Q 2378 3584 2631 3529 
Q 2884 3475 3122 3366 
z
" transform="scale(0.015625)"/>
      <path id="DejaVuSans-74" d="M 1172 4494 
L 1172 3500 
L 2356 3500 
L 2356 3053 
L 1172 3053 
L 1172 1153 
Q 1172 725 1289 603 
Q 1406 481 1766 481 
L 2356 481 
L 2356 0 
L 1766 0 
Q 1100 0 847 248 
Q 594 497 594 1153 
L 594 3053 
L 172 3053 
L 172 3500 
L 594 3500 
L 594 4494 
L 1172 4494 
z
" transform="scale(0.015625)"/>
      <path id="DejaVuSans-69" d="M 603 3500 
L 1178 3500 
L 1178 0 
L 603 0 
L 603 3500 
z
M 603 4863 
L 1178 4863 
L 1178 4134 
L 603 4134 
L 603 4863 
z
" transform="scale(0.015625)"/>
      <path id="DejaVuSans-6f" d="M 1959 3097 
Q 1497 3097 1228 2736 
Q 959 2375 959 1747 
Q 959 1119 1226 758 
Q 1494 397 1959 397 
Q 2419 397 2687 759 
Q 2956 1122 2956 1747 
Q 2956 2369 2687 2733 
Q 2419 3097 1959 3097 
z
M 1959 3584 
Q 2709 3584 3137 3096 
Q 3566 2609 3566 1747 
Q 3566 888 3137 398 
Q 2709 -91 1959 -91 
Q 1206 -91 779 398 
Q 353 888 353 1747 
Q 353 2609 779 3096 
Q 1206 3584 1959 3584 
z
" transform="scale(0.015625)"/>
     </defs>
     <use xlink:href="#DejaVuSans-Oblique-76" transform="translate(0 0.015625)"/>
     <use xlink:href="#DejaVuSans-Oblique-61" transform="translate(59.179688 -16.390625)scale(0.7)"/>
     <use xlink:href="#DejaVuSans-20" transform="translate(104.80957 0.015625)"/>
     <use xlink:href="#DejaVuSans-61" transform="translate(136.59668 0.015625)"/>
     <use xlink:href="#DejaVuSans-73" transform="translate(197.875977 0.015625)"/>
     <use xlink:href="#DejaVuSans-20" transform="translate(249.975586 0.015625)"/>
     <use xlink:href="#DejaVuSans-61" transform="translate(281.762695 0.015625)"/>
     <use xlink:href="#DejaVuSans-20" transform="translate(343.041992 0.015625)"/>
     <use xlink:href="#DejaVuSans-66" transform="translate(374.829102 0.015625)"/>
     <use xlink:href="#DejaVuSans-75" transform="translate(410.03418 0.015625)"/>
     <use xlink:href="#DejaVuSans-6e" transform="translate(473.413086 0.015625)"/>
     <use xlink:href="#DejaVuSans-63" transform="translate(536.791992 0.015625)"/>
     <use xlink:href="#DejaVuSans-74" transform="translate(591.772461 0.015625)"/>
     <use xlink:href="#DejaVuSans-69" transform="translate(630.981445 0.015625)"/>
     <use xlink:href="#DejaVuSans-6f" transform="translate(658.764648 0.015625)"/>
     <use xlink:href="#DejaVuSans-6e" transform="translate(719.946289 0.015625)"/>
     <use xlink:href="#DejaVuSans-20" transform="translate(783.325195 0.015625)"/>
     <use xlink:href="#DejaVuSans-6f" transform="translate(815.112305 0.015625)"/>
     <use xlink:href="#DejaVuSans-66" transform="translate(876.293945 0.015625)"/>
     <use xlink:href="#DejaVuSans-20" transform="translate(911.499023 0.015625)"/>
     <use xlink:href="#DejaVuSans-Oblique-3b7" transform="translate(943.286133 0.015625)"/>
    </g>
   </g>
   <g id="legend_1">
    <g id="patch_7">
     <path d="M 326.952812 59.67625 
L 393.90125 59.67625 
Q 395.90125 59.67625 395.90125 57.67625 
L 395.90125 29.32 
Q 395.90125 27.32 393.90125 27.32 
L 326.952812 27.32 
Q 324.952812 27.32 324.952812 29.32 
L 324.952812 57.67625 
Q 324.952812 59.67625 326.952812 59.67625 
z
" style="fill: #ffffff; opacity: 0.8; stroke: #cccccc; stroke-linejoin: miter"/>
    </g>
    <g id="PathCollection_3">
     <g>
      <use xlink:href="#m5ac44c0fbe" x="338.952812" y="36.293437" style="fill: #1f77b4; stroke: #1f77b4"/>
     </g>
    </g>
    <g id="text_19">
     <!-- N=40 -->
     <g transform="translate(356.952812 38.918437)scale(0.1 -0.1)">
      <defs>
       <path id="DejaVuSans-4e" d="M 628 4666 
L 1478 4666 
L 3547 763 
L 3547 4666 
L 4159 4666 
L 4159 0 
L 3309 0 
L 1241 3903 
L 1241 0 
L 628 0 
L 628 4666 
z
" transform="scale(0.015625)"/>
       <path id="DejaVuSans-3d" d="M 678 2906 
L 4684 2906 
L 4684 2381 
L 678 2381 
L 678 2906 
z
M 678 1631 
L 4684 1631 
L 4684 1100 
L 678 1100 
L 678 1631 
z
" transform="scale(0.015625)"/>
      </defs>
      <use xlink:href="#DejaVuSans-4e"/>
      <use xlink:href="#DejaVuSans-3d" x="74.804688"/>
      <use xlink:href="#DejaVuSans-34" x="158.59375"/>
      <use xlink:href="#DejaVuSans-30" x="222.216797"/>
     </g>
    </g>
    <g id="PathCollection_4">
     <g>
      <use xlink:href="#m383be65303" x="338.952812" y="50.971562" style="fill: #ff7f0e; stroke: #ff7f0e; stroke-width: 1.5"/>
     </g>
    </g>
    <g id="text_20">
     <!-- N=100 -->
     <g transform="translate(356.952812 53.596562)scale(0.1 -0.1)">
      <use xlink:href="#DejaVuSans-4e"/>
      <use xlink:href="#DejaVuSans-3d" x="74.804688"/>
      <use xlink:href="#DejaVuSans-31" x="158.59375"/>
      <use xlink:href="#DejaVuSans-30" x="222.216797"/>
      <use xlink:href="#DejaVuSans-30" x="285.839844"/>
     </g>
    </g>
   </g>
  </g>
 </g>
 <defs>
  <clipPath id="pcda32b8aa0">
   <rect x="43.78125" y="22.32" width="357.12" height="266.112"/>
  </clipPath>
 </defs>
</svg>
